<?xml version="1.0" encoding="UTF-8"?>
<svg version="1.1" xmlns="http://www.w3.org/2000/svg" width="310" height="310">
<path d="M0 0 C102.3 0 204.6 0 310 0 C310 102.3 310 204.6 310 310 C207.7 310 105.4 310 0 310 C0 207.7 0 105.4 0 0 Z " fill="#222222" transform="translate(0,0)"/>
<path d="M0 0 C0.88733826 0.00404846 1.77467651 0.00809692 2.68890381 0.01226807 C4.08903717 0.00701111 4.08903717 0.00701111 5.51745605 0.00164795 C8.61374268 -0.00717989 11.70980222 -0.00131648 14.80609131 0.00543213 C16.95078577 0.00408578 19.09547993 0.00214551 21.24017334 -0.00036621 C25.73938904 -0.0033189 30.23852544 0.00098485 34.73773193 0.01031494 C40.51519075 0.02170952 46.29246377 0.01515083 52.06991577 0.00317001 C56.49987192 -0.00404466 60.92978376 -0.00176246 65.35974121 0.0034256 C67.49047874 0.00476318 69.62122024 0.00311059 71.75195312 -0.00153351 C74.72583732 -0.00659227 77.69941736 0.00110237 80.67327881 0.01226807 C81.56061707 0.0082196 82.44795532 0.00417114 83.36218262 0 C89.45256371 0.04252953 89.45256371 0.04252953 91.68109131 2.27105713 C93.23669546 9.57401317 93.23280047 16.27075326 89.23577881 22.70074463 C86.50679977 26.60383431 83.53083281 30.30446295 80.51556396 33.98883057 C77.58197392 37.63844459 74.89336012 41.45587919 72.18109131 45.27105713 C71.0989954 46.77195005 70.01565933 48.27194962 68.93109131 49.77105713 C68.39484131 50.51355713 67.85859131 51.25605713 67.30609131 52.02105713 C49.43109131 76.77105713 49.43109131 76.77105713 47.80462646 79.02301025 C46.72608078 80.51643111 45.64762958 82.00992021 44.5692749 83.503479 C41.78847891 87.35471749 39.00583232 91.20459846 36.22015381 95.05230713 C35.64845459 95.84250244 35.07675537 96.63269775 34.48773193 97.44683838 C33.41153233 98.93426873 32.33476346 100.42128747 31.25726318 101.90777588 C28.46910641 105.76273712 25.71497605 109.63926215 22.98919678 113.53863525 C22.36721405 114.42812866 21.74523132 115.31762207 21.10440063 116.23406982 C20.63470856 116.90627563 20.16501648 117.57848145 19.68109131 118.27105713 C20.57867157 118.27914398 21.47625183 118.28723083 22.40103149 118.29556274 C30.84760076 118.37340731 39.29400842 118.46066692 47.7403698 118.55858421 C52.08304507 118.60859381 56.42569545 118.65492322 60.76849365 118.69293213 C64.95720031 118.72972632 69.14570111 118.77606983 73.33423233 118.82912064 C74.93462651 118.84769591 76.53506487 118.86279222 78.13552475 118.87440109 C80.37212084 118.89121037 82.60824222 118.92023126 84.84466553 118.95220947 C86.11929657 118.96553314 87.39392761 118.97885681 88.70718384 118.99258423 C91.68109131 119.27105713 91.68109131 119.27105713 93.68109131 121.27105713 C93.94671631 124.23980713 93.94671631 124.23980713 93.93109131 127.77105713 C93.93882568 129.51902588 93.93882568 129.51902588 93.94671631 131.30230713 C93.68109131 134.27105713 93.68109131 134.27105713 91.68109131 136.27105713 C89.87884521 136.52273941 89.87884521 136.52273941 87.65765381 136.52502441 C86.81637939 136.53066406 85.97510498 136.53630371 85.1083374 136.54211426 C84.18359619 136.5380658 83.25885498 136.53401733 82.30609131 136.52984619 C81.33365479 136.53335083 80.36121826 136.53685547 79.35931396 136.54046631 C76.13316791 136.54929515 72.90723974 136.54343037 69.68109131 136.53668213 C67.44671588 136.53802845 65.21234073 136.5399687 62.97796631 136.54248047 C58.290438 136.5454333 53.60298579 136.54112897 48.91546631 136.53179932 C42.89587343 136.52040474 36.87645889 136.52696336 30.85687256 136.53894424 C26.24162442 136.54615854 21.62641882 136.54387689 17.01116943 136.53868866 C14.79111714 136.53735097 12.57106103 136.53900402 10.35101318 136.54364777 C7.25260127 136.54870592 4.15448137 136.54101272 1.05609131 136.52984619 C-0.33102051 136.53591888 -0.33102051 136.53591888 -1.74615479 136.54211426 C-2.5874292 136.53647461 -3.42870361 136.53083496 -4.29547119 136.52502441 C-5.39496094 136.52389334 -5.39496094 136.52389334 -6.5166626 136.52273941 C-8.31890869 136.27105713 -8.31890869 136.27105713 -10.31890869 134.27105713 C-11.76284832 128.37223559 -11.97050017 122.49688707 -9.16168213 117.01080322 C-5.91089551 111.96466159 -2.10834105 107.34547854 1.70111084 102.71490479 C4.85865494 98.81761545 7.79235652 94.76286274 10.74359131 90.70855713 C11.91106088 89.12355391 13.07902792 87.53891699 14.24749756 85.95465088 C18.12734998 80.67389264 21.95861152 75.35860431 25.7868042 70.04034424 C29.71508222 64.58998483 33.68842811 59.1743878 37.68109131 53.77105713 C42.37438921 47.41522255 47.046777 41.04505825 51.68109131 34.64605713 C52.19671631 33.93642822 52.71234131 33.22679932 53.24359131 32.4956665 C55.85605419 28.87971853 58.39658285 25.22805366 60.86468506 21.51177979 C61.66023804 20.31496078 61.66023804 20.31496078 62.47186279 19.09396362 C62.8709082 18.49240448 63.26995361 17.89084534 63.68109131 17.27105713 C62.79381851 17.27327774 61.90654572 17.27549835 60.99238586 17.27778625 C52.64864474 17.29778674 44.30491162 17.31303002 35.96115208 17.3228693 C31.67109216 17.32809773 27.38105198 17.33519466 23.09100342 17.34649658 C18.95429731 17.35732688 14.81761023 17.36333426 10.68089104 17.36593437 C9.09916827 17.36778836 7.5174466 17.37140849 5.93573189 17.37678719 C3.72786293 17.38399953 1.52007358 17.38504799 -0.68780518 17.38458252 C-2.57643532 17.38791344 -2.57643532 17.38791344 -4.5032196 17.39131165 C-7.31890869 17.27105713 -7.31890869 17.27105713 -8.31890869 16.27105713 C-8.44448032 13.96112331 -8.49466598 11.64687177 -8.50640869 9.33355713 C-8.52058838 8.06640869 -8.53476807 6.79926025 -8.54937744 5.49371338 C-8.12574674 -0.42993619 -5.23332977 0.03654469 0 0 Z " fill="#FAFAFA" transform="translate(63.31890869140625,86.72894287109375)"/>
<path d="M0 0 C2.93383336 -0.24817926 5.63632685 -0.32643881 8.5625 -0.25 C9.75262695 -0.24226563 9.75262695 -0.24226563 10.96679688 -0.234375 C16.84595509 -0.15404491 16.84595509 -0.15404491 18 1 C17.97214219 7.24443487 16.30381554 12.55449475 13.78125 18.1875 C13.28716393 19.33180229 13.28716393 19.33180229 12.78309631 20.4992218 C12.07159567 22.14365945 11.35467461 23.78576058 10.63284302 25.4256897 C9.07282908 28.97071745 7.53993543 32.52727274 6.00526428 36.08332825 C5.20265427 37.94261004 4.39871358 39.80131795 3.5934906 41.6594696 C-0.52236481 51.16716746 -4.48760846 60.73495456 -8.4375 70.3125 C-9.84801864 73.72564933 -11.25983706 77.13826022 -12.671875 80.55078125 C-13.024207 81.40253937 -13.376539 82.25429749 -13.73954773 83.13186646 C-23.109793 105.77182624 -32.59484596 128.36531498 -42.13638306 150.93359375 C-42.74911635 152.38346201 -43.36108726 153.83365271 -43.97225952 155.28417969 C-44.80330009 157.25559403 -45.63747248 159.22565055 -46.47265625 161.1953125 C-46.93937744 162.29891113 -47.40609863 163.40250977 -47.88696289 164.53955078 C-49 167 -49 167 -50 168 C-52.82416382 168.12663091 -55.61294793 168.18520548 -58.4375 168.1875 C-59.22705078 168.19974609 -60.01660156 168.21199219 -60.83007812 168.22460938 C-62.88807435 168.22987279 -64.94562009 168.12206285 -67 168 C-67.66 167.34 -68.32 166.68 -69 166 C-68.66583222 161.04516162 -66.82409285 156.77477083 -64.8515625 152.28125 C-64.52773087 151.52803467 -64.20389923 150.77481934 -63.87025452 149.9987793 C-63.16545414 148.36055591 -62.45780768 146.7235547 -61.74765015 145.08764648 C-59.79450664 140.58575875 -57.86500392 136.0737445 -55.93359375 131.5625 C-55.52770523 130.61564331 -55.12181671 129.66878662 -54.70362854 128.6932373 C-50.27123096 118.33407629 -45.97449113 107.91997643 -41.6875 97.5 C-40.09941693 93.64434225 -38.51067985 89.78895412 -36.921875 85.93359375 C-36.3239489 84.48236366 -36.3239489 84.48236366 -35.71394348 83.0018158 C-31.40267532 72.54234843 -27.06764271 62.09280295 -22.72109985 51.64794922 C-21.8849222 49.63798974 -21.04941861 47.62774967 -20.21469116 45.6171875 C-15.7258452 34.80649164 -11.18017017 24.02197732 -6.53515625 13.27734375 C-6.1114122 12.29254532 -5.68766815 11.30774689 -5.25108337 10.29310608 C-4.85506424 9.38161301 -4.4590451 8.47011993 -4.05102539 7.53100586 C-3.702621 6.72674667 -3.35421661 5.92248749 -2.99525452 5.09385681 C-2 3 -2 3 0 0 Z " fill="#FBFBFB" transform="translate(239,71)"/>
<path d="M0 0 C0.33 0 0.66 0 1 0 C1 4.62 1 9.24 1 14 C-3.62 14 -8.24 14 -13 14 C-11.35 12.68 -9.7 11.36 -8 10 C-6.71415096 8.65846459 -5.46110299 7.28438091 -4.25 5.875 C-3.65703125 5.19179688 -3.0640625 4.50859375 -2.453125 3.8046875 C-0.93897026 2.05512173 -0.93897026 2.05512173 0 0 Z " fill="#000000" transform="translate(309,296)"/>
<path d="M0 0 C1.32 1.65 2.64 3.3 4 5 C5.34280264 6.26426135 6.71697827 7.49630291 8.125 8.6875 C10.15588091 10.4156647 12.11354179 12.11354179 14 14 C9.38 14 4.76 14 0 14 C0 9.38 0 4.76 0 0 Z " fill="#000000" transform="translate(0,296)"/>
<path d="M0 0 C4.62 0 9.24 0 14 0 C14 4.62 14 9.24 14 14 C12.68 12.35 11.36 10.7 10 9 C8.65719736 7.73573865 7.28302173 6.50369709 5.875 5.3125 C3.84411909 3.5843353 1.88645821 1.88645821 0 0 Z " fill="#000000" transform="translate(296,0)"/>
<path d="M0 0 C4.62 0 9.24 0 14 0 C12.35 1.32 10.7 2.64 9 4 C7.73573865 5.34280264 6.50369709 6.71697827 5.3125 8.125 C3.5843353 10.15588091 1.88645821 12.11354179 0 14 C0 9.38 0 4.76 0 0 Z " fill="#000000" transform="translate(0,0)"/>
</svg>
